<svg width="52" height="52" viewBox="0 0 52 52" fill="none" xmlns="http://www.w3.org/2000/svg">
<path d="M45.1689 32.1868L35.5997 27.8988L35.5733 27.8866C35.0765 27.6741 34.5346 27.5889 33.9966 27.6385C33.4586 27.6882 32.9414 27.8712 32.4919 28.171C32.439 28.206 32.3881 28.2439 32.3396 28.2847L27.3955 32.4996C24.2633 30.9782 21.0296 27.7688 19.5081 24.6772L23.7291 19.658C23.7697 19.6072 23.8083 19.5565 23.8449 19.5016C24.1382 19.0533 24.3162 18.5395 24.363 18.0058C24.4098 17.472 24.3239 16.9351 24.113 16.4426V16.4182L19.8128 6.83271C19.534 6.18935 19.0546 5.6534 18.4462 5.30489C17.8377 4.95637 17.1329 4.81398 16.4369 4.89896C13.6845 5.26115 11.158 6.61287 9.32941 8.70166C7.50079 10.7904 6.49504 13.4735 6.50002 16.2496C6.50002 32.3777 19.6219 45.4996 35.75 45.4996C38.5261 45.5046 41.2092 44.4988 43.298 42.6702C45.3867 40.8416 46.7385 38.3151 47.1006 35.5627C47.1858 34.8669 47.0437 34.1623 46.6956 33.5539C46.3474 32.9455 45.8119 32.4659 45.1689 32.1868ZM35.75 42.2496C28.8567 42.2421 22.2479 39.5004 17.3736 34.626C12.4992 29.7517 9.75755 23.1429 9.75002 16.2496C9.74238 14.2661 10.457 12.3475 11.7604 10.8524C13.0638 9.35719 14.8669 8.38757 16.833 8.12459C16.8322 8.13269 16.8322 8.14086 16.833 8.14896L21.0986 17.6958L16.9 22.7212C16.8574 22.7702 16.8187 22.8225 16.7842 22.8776C16.4786 23.3466 16.2992 23.8867 16.2637 24.4454C16.2281 25.0041 16.3374 25.5626 16.5811 26.0666C18.4214 29.8305 22.2138 33.5944 26.0183 35.4327C26.526 35.6741 27.0877 35.7797 27.6485 35.7391C28.2092 35.6985 28.7498 35.5132 29.2175 35.2012C29.2697 35.166 29.3199 35.128 29.3678 35.0874L34.3058 30.8746L43.8527 35.1504C43.8527 35.1504 43.8689 35.1504 43.875 35.1504C43.6153 37.1192 42.6471 38.9259 41.1516 40.2326C39.6562 41.5392 37.7359 42.2563 35.75 42.2496Z" fill="white"/>
</svg>
